<svg width="70" height="70" viewBox="0 0 70 70" fill="none" xmlns="http://www.w3.org/2000/svg">
<path d="M43.0786 16.1532C34.1576 16.1532 16.288 8.92139 16.288 0H16.1559C16.1559 7.14026 18.9922 13.988 24.0412 19.0371C29.09 24.0861 35.9375 26.9228 43.0779 26.923C47.362 26.923 51.4709 28.6249 54.5003 31.6542C57.5298 34.6836 59.2317 38.7924 59.2317 43.0765C59.2327 47.3606 57.5315 51.4701 54.5027 54.5C51.4738 57.5302 47.3654 59.2328 43.0813 59.2338C38.7968 59.2345 34.6877 57.5332 31.6576 54.5044C28.6276 51.4755 26.9248 47.3671 26.924 43.083C26.9239 39.5473 26.2274 36.0463 24.8744 32.78C23.5212 29.5135 21.538 26.5456 19.0379 24.0456C16.5377 21.5456 13.5697 19.5625 10.3032 18.2096C7.03665 16.8567 3.5356 16.1605 0 16.1606V16.2916C8.9197 16.2916 16.1516 34.1536 16.1549 43.0762H16.1532C16.1532 48.4013 17.732 53.6065 20.6903 58.034C23.6486 62.4615 27.8533 65.9123 32.7728 67.9501C37.6923 69.9882 43.1055 70.5216 48.3282 69.4827C53.5507 68.4441 58.3479 65.8801 62.1135 62.1152C65.8787 58.35 68.4432 53.5529 69.4823 48.3303C70.5216 43.1078 69.9885 37.6947 67.9511 32.7749C65.9137 27.8553 62.4631 23.6503 58.036 20.6917C53.6085 17.7329 48.4033 16.1536 43.0786 16.1532Z" fill="url(#paint0_linear)"/>
<defs>
<linearGradient id="paint0_linear" x1="55.79" y1="60.55" x2="15.12" y2="4.68999" gradientUnits="userSpaceOnUse">
<stop offset="0.295" stop-color="#F0D43A"/>
<stop offset="0.384" stop-color="#F0D43A"/>
<stop offset="0.477" stop-color="#F0D43A"/>
<stop offset="0.571" stop-color="#F0D43A"/>
<stop offset="0.666" stop-color="#F0D43A"/>
<stop offset="0.761" stop-color="#F0D43A"/>
<stop offset="0.857" stop-color="#EFCE3B"/>
<stop offset="0.868" stop-color="#F0D43A"/>
</linearGradient>
</defs>
</svg>
